<svg xmlns="http://www.w3.org/2000/svg" viewBox="0 0 600 250" role="img" aria-labelledby="title desc"><title id="title">Presencio</title><desc id="desc">Presencio logo with a navy geometric P and blue dot</desc><rect width="600" height="250" fill="white" fill-opacity="0"/><path fill="#0b1f3b" d="M76 35h102c45 0 75 28 75 69 0 42-30 69-75 69h-48v42H76V35Zm54 47v44h43c18 0 29-8 29-22s-11-22-29-22h-43Z"/><path fill="#0b1f3b" d="M225 58c-2-11-9-18-20-22h53c7 0 12 5 12 12v7c0 7-5 12-12 12h-25c-3-4-5-6-8-9Z"/><circle cx="265" cy="38" r="23" fill="#0878ff"/><text x="76" y="236" font-family="Arial,Helvetica,sans-serif" font-size="48" font-weight="700" letter-spacing="2" fill="#0b1f3b">PRESENCIO</text></svg>